<svg xmlns="http://www.w3.org/2000/svg" viewBox="0 0 80 80"><defs><style>.cls-1,.cls-2,.cls-3,.cls-4,.cls-5{fill:none;stroke-linecap:round;stroke-linejoin:round;}.cls-1{stroke:#fadb17;stroke-width:8.28px;}.cls-2,.cls-3,.cls-4,.cls-5{stroke:#000000;}.cls-2{stroke-width:2.41px;}.cls-3{stroke-width:2px;}.cls-4{stroke-width:0.75px;}</style></defs><g id="Calque_4" data-name="Calque 4"><path class="cls-1" d="M22.07,41.9,31,54.63S40.19,34.08,45.46,30.2"/><path class="cls-2" d="M68.78,38.79V75a2.42,2.42,0,0,1-2.42,2.42H15.65A2.41,2.41,0,0,1,13.24,75V5a2.41,2.41,0,0,1,2.41-2.42H66.36A2.42,2.42,0,0,1,68.78,5V29.13"/><rect class="cls-3" x="38.13" y="39" width="44.39" height="6.83" transform="translate(-12.32 55.08) rotate(-45)"/><polygon class="cls-3" points="47.04 60.52 37.38 65.36 42.21 55.7 47.04 60.52"/><line class="cls-4" x1="20.48" y1="12.23" x2="47.04" y2="12.23"/><line class="cls-5" x1="20.48" y1="19.47" x2="47.04" y2="19.47"/></g></svg>