<?xml version="1.0" encoding="utf-8"?>
<!-- Generator: Adobe Illustrator 28.3.0, SVG Export Plug-In . SVG Version: 6.00 Build 0)  -->
<svg version="1.1" id="Calque_1" xmlns="http://www.w3.org/2000/svg" xmlns:xlink="http://www.w3.org/1999/xlink" x="0px" y="0px"
	 viewBox="0 0 80 80" style="enable-background:new 0 0 80 80;" xml:space="preserve">
<style type="text/css">
	.st0{fill:none;stroke:#000000;stroke-width:0.86;stroke-miterlimit:10;}
	.st1{fill:none;stroke:#000000;stroke-width:0.86;stroke-linecap:round;stroke-miterlimit:10;}
	.st2{fill:none;stroke:#000000;stroke-width:2;stroke-miterlimit:10;}
	.st3{fill:none;stroke:#fadb17;stroke-width:2;stroke-linecap:round;stroke-linejoin:round;}
	.st4{fill:#FFFFFF;stroke:#fadb17;stroke-linejoin:round;}
	.st5{enable-background:new    ;}
	.st6{fill:#fadb17;}
</style>
<g id="Calque_3">
	<rect x="48" y="16.2" transform="matrix(0.9165 -0.4 0.4 0.9165 -7.218 25.6107)" class="st0" width="19.4" height="27.8"/>
	<polyline class="st1" points="60.5,15 57.7,28.6 70.7,38.3 	"/>
</g>
<g id="Calque_2_00000056408461307250698000000008066165552816948374_">
	<rect x="35.1" y="28.6" class="st2" width="43.6" height="43.6"/>
	<polyline class="st3" points="1.3,10.4 20.1,11.6 24.1,22.9 3.4,26.3 	"/>
	<path class="st4" d="M21.1,12.4l11.7-2.7c1.7-0.4,3.4-0.5,5.1-0.3c1.3,0.2,7.5,0.6,8.3,1.4s7,6,7.3,6.7s-1.3,1.6-1.8,1.2
		S46,14.7,45,14.4c-1.1-0.3-2.3-0.2-3.3,0.2c-1.2,0.4-6,1.3-6.6,1.6c-0.6,0.2,8.6,2.1,9.2,2.6s0.7,1.8,0,2s-7.5-0.7-8.1-0.8
		s-2.2,1.8-2.8,1.8S24.8,21,24.1,21"/>
</g>
<g id="Calque_5">
	<g class="st5">
		<path class="st6" d="M11.9,48.8c5.1-0.5,8.4-1.6,8.4-5.3c0-2.3-1.7-3.9-4.1-3.9s-3.8,1.3-5.4,3.6l-4.8-3c2.4-3.9,5.8-6,10.5-6
			c5.2,0,9.9,3.5,9.9,9.1c0,5.2-3.9,8.4-9.4,9.4l-0.3,3.3h-4.2L11.9,48.8z M10.8,62.8c0-2.1,1.7-3.8,3.9-3.8c2,0,3.8,1.7,3.8,3.8
			c0,2.1-1.8,3.8-3.8,3.8C12.5,66.6,10.8,64.8,10.8,62.8z"/>
	</g>
</g>
</svg>
