<svg xmlns="http://www.w3.org/2000/svg" viewBox="0 0 80 80"><defs><style>.cls-1,.cls-2,.cls-3{fill:none;stroke:#fadb17;stroke-miterlimit:10;}.cls-2{stroke-dasharray:9.49 9.49;}.cls-3{stroke-dasharray:12;}.cls-4{fill:#000000;}</style></defs><g id="Calque_4" data-name="Calque 4"><path class="cls-1" d="M1.15,9.22a25.82,25.82,0,0,1,5.44-2.5"/><path class="cls-2" d="M15.7,4.1c8.41-1.78,17.93-1.91,21.37,4.29,2.22,4,2.73,7,2.19,9.53"/><path class="cls-1" d="M37.13,22.11a29.74,29.74,0,0,1-4.39,4.07"/><path class="cls-3" d="M14.63,41.17C10.28,51.26-19,80.72,79.23,76.56"/><path class="cls-4" d="M24.61,49.59l25.71,17.9,0,0h0a1.23,1.23,0,0,0,.46.18,1.16,1.16,0,0,0,.49,0,1.12,1.12,0,0,0,.46-.2,1.23,1.23,0,0,0,.33-.35h0l0-.06L79.84,19.57l0-.07a1.33,1.33,0,0,0,.1-.71,1.28,1.28,0,0,0-.31-.68,1.34,1.34,0,0,0-.62-.39,1.21,1.21,0,0,0-.73,0L1.05,30.47h0a1.26,1.26,0,0,0-.66.33,1.36,1.36,0,0,0-.36.64,1.33,1.33,0,0,0,.05.74,1.23,1.23,0,0,0,.45.58L15.36,43.11l-.64-1.72-.09-.22.22-.1,1.26-.53-11-7.71-.51-.37.61-.1L75.75,20.72l.53-.09-.27.46L50.78,64.38l-.15.24-.22-.16L25.54,47.13Z"/><path class="cls-4" d="M34.75,55.2,18.92,63.36a1.26,1.26,0,0,1-1.15,0,1.32,1.32,0,0,1-.7-.92L13.17,40,13,38.87l1-.34L78.26,18l1,2.33L25.89,48.25,21,59.45l12.64-6.52ZM15.87,40.62l3,17.25,4.86-11,.58-.61L65.05,24.88Z"/></g></svg>